<?xml version="1.0" encoding="iso-8859-1"?>
<!-- Generator: Adobe Illustrator 19.0.0, SVG Export Plug-In . SVG Version: 6.00 Build 0)  -->
<svg version="1.1" id="Layer_1" xmlns="http://www.w3.org/2000/svg" xmlns:xlink="http://www.w3.org/1999/xlink" x="0px" y="0px"
	 viewBox="0 0 512 512" style="enable-background:new 0 0 512 512;" xml:space="preserve">
<path style="fill:#005ECF;" d="M510.631,201.005c0.662-4.958,1.204-11.618,1.345-16.618c0.079-2.784-0.056-6.499-0.196-9.28
	c-0.112-2.225-0.404-5.182-0.645-7.396c-0.498-4.591-1.706-11.112-2.522-14.321c-0.464-1.825-1.032-4.276-1.599-6.072
	c-2.294-7.269-2.294-7.269-3.922-11.427c-0.633-1.618-1.514-3.764-2.263-5.331c-1.46-3.051-3.445-7.105-5.096-10.058
	c-1.78-3.181-2.095-3.662-5.959-9.549c-0.957-1.459-2.343-3.329-3.404-4.714c-1.104-1.442-2.607-3.345-3.772-4.738
	c-1.17-1.398-2.806-3.196-4.009-4.565c-1.232-1.401-3.024-3.133-4.328-4.466c-0.045-0.047-4.62-4.702-11.577-10.052
	c-3.567-2.743-8.546-6.118-12.423-8.403c-7.056-4.16-10.855-5.797-17.148-8.51c-3.738-1.611-8.905-3.335-12.829-4.413
	c-4.771-1.31-11.223-2.788-16.124-3.468c-5.508-0.765-12.927-1.299-18.487-1.341c-12.489-0.094-24.87,2.316-29.672,3.604
	c-4.46,1.196-10.411,2.852-14.698,4.568c-4.501,1.802-10.043,4.454-14.827,6.878c-1.145,0.529-2.268,1.099-3.36,1.725
	l-132.683,76.101c0.132-0.075,0.273-0.136,0.405-0.21c-16.182,9.052-26.391,28.621-26.818,56.664
	c-0.86,56.558,38.367,126.113,87.614,155.356c25.614,15.21,48.876,16.49,65.443,6.287c-0.378,0.233-0.743,0.488-1.128,0.71
	l132.682-76.103c3.561-2.112,8.251-5.045,11.582-7.502c3.732-2.754,8.613-6.593,11.921-9.844c4.177-4.104,9.51-9.835,13.183-14.396
	c2.993-3.715,6.559-9.012,8.981-13.122c2.716-4.607,5.952-10.989,8.004-15.928c2.076-4.997,4.253-11.896,5.723-17.103
	C509.102,210.149,510.106,204.937,510.631,201.005z"/>
<path style="fill:#016EF1;" d="M251.633,360.969c-49.248-29.243-88.474-98.798-87.614-155.356
	c0.86-56.558,41.48-78.701,90.726-49.458c49.248,29.243,88.474,98.798,87.614,155.356S300.881,390.212,251.633,360.969z"/>
<path style="fill:#2487FF;" d="M510.631,201.005c0.662-4.958,1.204-11.618,1.345-16.618c0.079-2.784-0.056-6.499-0.196-9.28
	c-0.112-2.225-0.404-5.182-0.645-7.396c-0.498-4.591-1.706-11.112-2.522-14.321c-0.464-1.825-1.032-4.276-1.599-6.072
	c-2.294-7.269-2.294-7.269-3.922-11.427c-0.633-1.618-1.514-3.764-2.263-5.331c-1.46-3.051-3.445-7.105-5.096-10.058
	c-1.78-3.181-2.095-3.662-5.959-9.549c-0.957-1.459-2.343-3.329-3.404-4.714c-1.104-1.442-2.607-3.345-3.772-4.738
	c-1.17-1.398-2.806-3.196-4.009-4.565c-1.232-1.401-3.024-3.133-4.328-4.466c-0.045-0.047-4.62-4.702-11.577-10.052
	c-3.567-2.743-8.546-6.118-12.423-8.403c-7.056-4.16-10.855-5.797-17.148-8.51c-3.738-1.611-8.905-3.335-12.829-4.413
	c-4.771-1.31-11.223-2.788-16.124-3.468c-5.508-0.765-12.927-1.299-18.487-1.341c-12.489-0.094-24.87,2.316-29.672,3.604
	c-4.46,1.196-10.411,2.852-14.698,4.568c-4.501,1.802-10.043,4.454-14.827,6.878c-1.145,0.529-2.268,1.099-3.36,1.725
	l-132.683,76.101c16.486-9.455,39.286-7.866,64.314,6.996c49.248,29.243,88.474,98.798,87.614,155.356
	c-0.423,27.813-10.461,47.304-26.412,56.453l132.682-76.103c3.561-2.112,8.251-5.045,11.582-7.502
	c3.732-2.754,8.613-6.593,11.921-9.844c4.177-4.104,9.51-9.835,13.183-14.396c2.993-3.715,6.559-9.012,8.981-13.122
	c2.716-4.607,5.952-10.989,8.004-15.928c2.076-4.997,4.253-11.896,5.723-17.103C509.102,210.149,510.106,204.937,510.631,201.005z"
	/>
<path style="fill:#005ECF;" d="M510.631,201.005c0.662-4.958,1.204-11.618,1.345-16.618c0.079-2.784-0.056-6.499-0.196-9.28
	c-0.112-2.225-0.404-5.182-0.645-7.396c-0.498-4.591-1.706-11.112-2.522-14.321c-0.464-1.825-1.032-4.276-1.599-6.072
	c-2.294-7.269-2.294-7.269-3.922-11.427c-0.633-1.618-1.514-3.764-2.263-5.331c-1.46-3.051-3.445-7.105-5.096-10.058
	c-1.78-3.181-2.095-3.662-5.959-9.549c-0.957-1.459-2.343-3.329-3.404-4.714c-0.214-0.28-0.453-0.587-0.692-0.894
	c0.173,0.431,0.341,0.85,0.491,1.234c1.628,4.158,1.628,4.158,3.922,11.427c0.566,1.796,1.135,4.247,1.599,6.073
	c0.816,3.209,2.024,9.729,2.522,14.321c0.24,2.214,0.533,5.172,0.645,7.396c0.14,2.782,0.276,6.496,0.196,9.28
	c-0.141,5-0.682,11.66-1.345,16.618c-0.526,3.931-1.53,9.144-2.608,12.961c-1.47,5.207-3.647,12.107-5.723,17.103
	c-2.052,4.938-5.289,11.321-8.005,15.929c-2.422,4.11-5.988,9.407-8.981,13.122c-3.674,4.561-9.006,10.291-13.183,14.396
	c-3.308,3.251-8.189,7.09-11.921,9.844c-3.331,2.459-8.022,5.391-11.582,7.502l-89.433,51.297
	c-0.94,26.558-10.828,45.231-26.326,54.12l132.682-76.103c3.561-2.112,8.251-5.045,11.582-7.502
	c3.732-2.754,8.613-6.593,11.921-9.844c4.177-4.104,9.51-9.835,13.183-14.396c2.993-3.715,6.559-9.012,8.981-13.122
	c2.716-4.607,5.952-10.989,8.004-15.928c2.076-4.997,4.253-11.896,5.723-17.103C509.102,210.149,510.106,204.937,510.631,201.005z"
	/>
<path style="fill:#D8D8DA;" d="M336.556,311.284c0.831-54.701-37.107-121.975-84.738-150.257
	c-24.207-14.374-46.259-15.912-62.204-6.767L61.291,227.864c-3.796,2.281-8.795,5.446-12.344,8.097
	c-3.598,2.689-8.247,6.5-11.432,9.666c-4.01,3.987-9.073,9.603-12.567,14.048c-2.862,3.642-6.242,8.837-8.568,12.841
	c-2.621,4.511-5.67,10.793-7.612,15.635c-1.942,4.84-3.948,11.519-5.303,16.556c-0.879,3.263-1.746,7.702-2.151,11.056
	c-0.965,7.992-1.257,10.405-1.311,17.595c-0.033,4.383,0.327,10.233,0.828,14.588c0.76,6.613,2.139,12.698,2.44,13.85
	c0.46,1.763,0.998,4.136,1.546,5.873c2.218,7.033,2.218,7.033,3.792,11.051c0.613,1.565,1.464,3.64,2.189,5.157
	c2.992,6.254,3.17,6.628,4.931,9.731c1.611,2.839,3.97,6.502,5.762,9.232c0.926,1.411,2.266,3.22,3.291,4.559
	c1.069,1.395,2.521,3.234,3.649,4.582c1.132,1.352,2.714,3.091,3.878,4.415c1.192,1.355,2.924,3.029,4.186,4.32
	c0.044,0.045,4.469,4.548,11.196,9.722c3.449,2.653,8.342,5.794,12.014,8.127c2.735,1.584,6.448,3.582,9.279,4.987
	c2.148,1.066,5.104,2.295,7.306,3.243c3.615,1.559,8.612,3.226,12.408,4.267c4.614,1.266,10.856,2.696,15.595,3.354
	c5.327,0.74,12.502,1.257,17.881,1.297c12.081,0.091,24.057-2.24,28.701-3.486c4.314-1.157,10.072-2.759,14.219-4.419
	c5.42-2.171,12.418-5.618,17.592-8.321l128.323-73.604C326.439,357.036,336.147,338.185,336.556,311.284z"/>
<path style="fill:#C6C5CB;" d="M336.556,311.284c0.504-33.127-13.226-70.851-34.703-101.747
	c11.035,23.451,17.453,48.453,17.106,71.271c-0.409,26.901-10.118,45.751-25.546,54.601l-128.323,73.604
	c-5.175,2.702-12.173,6.15-17.592,8.321c-4.147,1.66-9.905,3.262-14.219,4.419c-4.645,1.246-16.619,3.577-28.701,3.486
	c-5.378-0.041-12.554-0.557-17.881-1.297c-4.74-0.658-10.981-2.088-15.595-3.354c-3.796-1.042-8.794-2.709-12.408-4.267
	c-2.202-0.95-5.158-2.178-7.306-3.243c-2.831-1.404-6.544-3.402-9.279-4.986c-3.674-2.332-8.565-5.474-12.014-8.127
	c-6.727-5.173-11.152-9.677-11.196-9.722c-1.262-1.289-2.994-2.964-4.186-4.32c-1.164-1.324-2.747-3.063-3.878-4.415
	c-0.671-0.802-1.452-1.775-2.205-2.728c0.611,1.559,1.45,3.602,2.167,5.101c2.992,6.254,3.17,6.628,4.931,9.731
	c1.611,2.839,3.97,6.502,5.762,9.232c0.926,1.411,2.266,3.22,3.291,4.559c1.069,1.395,2.521,3.234,3.649,4.582
	c1.132,1.352,2.714,3.091,3.878,4.415c1.192,1.355,2.924,3.029,4.186,4.32c0.044,0.045,4.469,4.548,11.196,9.722
	c3.449,2.653,8.342,5.794,12.014,8.127c2.735,1.584,6.448,3.582,9.279,4.987c2.148,1.066,5.104,2.295,7.306,3.243
	c3.615,1.559,8.612,3.226,12.408,4.267c4.614,1.266,10.856,2.696,15.595,3.354c5.327,0.74,12.502,1.257,17.881,1.297
	c12.081,0.091,24.057-2.24,28.701-3.486c4.314-1.157,10.072-2.759,14.219-4.419c5.42-2.171,12.418-5.618,17.592-8.321
	l128.323-73.604C326.439,357.036,336.147,338.185,336.556,311.284z"/>
<circle style="fill:#E0E0E2;" cx="83.311" cy="321.967" r="63.386"/>
<g>
</g>
<g>
</g>
<g>
</g>
<g>
</g>
<g>
</g>
<g>
</g>
<g>
</g>
<g>
</g>
<g>
</g>
<g>
</g>
<g>
</g>
<g>
</g>
<g>
</g>
<g>
</g>
<g>
</g>
</svg>
